<mxfile host="Electron" agent="Mozilla/5.0 (Windows NT 10.0; Win64; x64) AppleWebKit/537.36 (KHTML, like Gecko) draw.io/24.7.8 Chrome/128.0.6613.36 Electron/32.0.1 Safari/537.36" version="24.7.8">
  <diagram name="Page-1" id="-H_mtQnk-PTXWXPvYvuk">
    <mxGraphModel dx="842" dy="568" grid="1" gridSize="10" guides="1" tooltips="1" connect="1" arrows="1" fold="1" page="1" pageScale="1" pageWidth="1169" pageHeight="827" math="0" shadow="0">
      <root>
        <mxCell id="0" />
        <mxCell id="1" parent="0" />
        <mxCell id="mjIp_5prs85UFXJ5Mf7U-9" style="edgeStyle=orthogonalEdgeStyle;rounded=0;orthogonalLoop=1;jettySize=auto;html=1;entryX=0.5;entryY=0;entryDx=0;entryDy=0;exitX=0.377;exitY=0.003;exitDx=0;exitDy=0;exitPerimeter=0;" edge="1" parent="1" source="zA23MoTUsTF4_91t8viU-2" target="mjIp_5prs85UFXJ5Mf7U-7">
          <mxGeometry relative="1" as="geometry">
            <Array as="points">
              <mxPoint x="675" y="220" />
              <mxPoint x="675" y="170" />
              <mxPoint x="605" y="170" />
            </Array>
          </mxGeometry>
        </mxCell>
        <mxCell id="zA23MoTUsTF4_91t8viU-2" value="MongoDB&lt;div&gt;shard1&lt;/div&gt;" style="shape=cylinder3;whiteSpace=wrap;html=1;boundedLbl=1;backgroundOutline=1;size=15;" parent="1" vertex="1">
          <mxGeometry x="700" y="220" width="60" height="80" as="geometry" />
        </mxCell>
        <mxCell id="mjIp_5prs85UFXJ5Mf7U-3" style="edgeStyle=orthogonalEdgeStyle;rounded=0;orthogonalLoop=1;jettySize=auto;html=1;entryX=0;entryY=0.5;entryDx=0;entryDy=0;" edge="1" parent="1" source="zA23MoTUsTF4_91t8viU-3">
          <mxGeometry relative="1" as="geometry">
            <mxPoint x="560" y="315" as="targetPoint" />
          </mxGeometry>
        </mxCell>
        <mxCell id="zA23MoTUsTF4_91t8viU-3" value="pymongo-api" style="rounded=1;whiteSpace=wrap;html=1;" parent="1" vertex="1">
          <mxGeometry x="360" y="285" width="120" height="60" as="geometry" />
        </mxCell>
        <mxCell id="mjIp_5prs85UFXJ5Mf7U-1" value="MongoDB&lt;div&gt;shard2&lt;/div&gt;" style="shape=cylinder3;whiteSpace=wrap;html=1;boundedLbl=1;backgroundOutline=1;size=15;" vertex="1" parent="1">
          <mxGeometry x="700" y="334" width="60" height="80" as="geometry" />
        </mxCell>
        <mxCell id="mjIp_5prs85UFXJ5Mf7U-4" style="edgeStyle=orthogonalEdgeStyle;rounded=0;orthogonalLoop=1;jettySize=auto;html=1;exitX=1;exitY=0.5;exitDx=0;exitDy=0;entryX=0;entryY=0.5;entryDx=0;entryDy=0;entryPerimeter=0;" edge="1" parent="1" target="zA23MoTUsTF4_91t8viU-2">
          <mxGeometry relative="1" as="geometry">
            <mxPoint x="640" y="315" as="sourcePoint" />
          </mxGeometry>
        </mxCell>
        <mxCell id="mjIp_5prs85UFXJ5Mf7U-5" style="edgeStyle=orthogonalEdgeStyle;rounded=0;orthogonalLoop=1;jettySize=auto;html=1;entryX=0;entryY=0.5;entryDx=0;entryDy=0;entryPerimeter=0;" edge="1" parent="1" target="mjIp_5prs85UFXJ5Mf7U-1">
          <mxGeometry relative="1" as="geometry">
            <mxPoint x="640" y="315" as="sourcePoint" />
          </mxGeometry>
        </mxCell>
        <mxCell id="mjIp_5prs85UFXJ5Mf7U-6" value="mongos_router" style="rhombus;whiteSpace=wrap;html=1;" vertex="1" parent="1">
          <mxGeometry x="560" y="275" width="80" height="80" as="geometry" />
        </mxCell>
        <mxCell id="mjIp_5prs85UFXJ5Mf7U-7" value="configSrv" style="rounded=0;whiteSpace=wrap;html=1;" vertex="1" parent="1">
          <mxGeometry x="560" y="190" width="90" height="40" as="geometry" />
        </mxCell>
        <mxCell id="mjIp_5prs85UFXJ5Mf7U-13" style="edgeStyle=orthogonalEdgeStyle;rounded=0;orthogonalLoop=1;jettySize=auto;html=1;entryX=0.444;entryY=1;entryDx=0;entryDy=0;entryPerimeter=0;" edge="1" parent="1" source="mjIp_5prs85UFXJ5Mf7U-6" target="mjIp_5prs85UFXJ5Mf7U-7">
          <mxGeometry relative="1" as="geometry" />
        </mxCell>
      </root>
    </mxGraphModel>
  </diagram>
</mxfile>
